HIERARCHY
ROOT Hips
{
	OFFSET -10.056300 7.733760 -472.550000
	CHANNELS 6 Xposition Yposition Zposition Zrotation Yrotation Xrotation 
	JOINT Spine
	{
		OFFSET 0.000000 0.000000 0.000000
		CHANNELS 3 Zrotation Yrotation Xrotation
		JOINT Spine1
		{
			OFFSET 19.000000 0.000000 0.000000
			CHANNELS 3 Zrotation Yrotation Xrotation
			JOINT Neck
			{
				OFFSET 22.500000 0.600000 0.000000
				CHANNELS 3 Zrotation Yrotation Xrotation
				JOINT Head
				{
					OFFSET 14.000000 0.030878 0.000000
					CHANNELS 3 Zrotation Yrotation Xrotation
					End Site
					{
						OFFSET 17.000000 0.000000 0.000000
					}
				}
			}
			JOINT LeftShoulder
			{
				OFFSET 19.800000 3.700000 4.300000
				CHANNELS 3 Zrotation Yrotation Xrotation
				JOINT LeftArm
				{
					OFFSET 8.000000 0.000000 0.000000
					CHANNELS 3 Zrotation Yrotation Xrotation
					JOINT LeftForeArm
					{
						OFFSET 15.200000 0.000000 0.000000
						CHANNELS 3 Zrotation Yrotation Xrotation
						JOINT LeftHand
						{
							OFFSET 17.800000 0.000000 0.000000
							CHANNELS 3 Zrotation Yrotation Xrotation
							End Site
							{
								OFFSET 7.200000 0.000000 0.000000
							}
						}
					}
				}
			}
			JOINT RightShoulder
			{
				OFFSET 19.800000 3.700000 -4.300000
				CHANNELS 3 Zrotation Yrotation Xrotation
				JOINT RightArm
				{
					OFFSET 8.000000 0.000000 0.151654
					CHANNELS 3 Zrotation Yrotation Xrotation
					JOINT RightForeArm
					{
						OFFSET 15.200000 0.000000 0.000000
						CHANNELS 3 Zrotation Yrotation Xrotation
						JOINT RightHand
						{
							OFFSET 17.800000 0.000000 0.000000
							CHANNELS 3 Zrotation Yrotation Xrotation
							End Site
							{
								OFFSET 7.200000 0.000000 0.000000
							}
						}
					}
				}
			}
		}
	}
	JOINT LeftUpLeg
	{
		OFFSET 5.984250 -7.666000 4.788790
		CHANNELS 3 Zrotation Yrotation Xrotation
		JOINT LeftLeg
		{
			OFFSET 16.000000 0.000000 0.000000
			CHANNELS 3 Zrotation Yrotation Xrotation
			JOINT LeftFoot
			{
				OFFSET 18.000000 0.000000 0.000000
				CHANNELS 3 Zrotation Yrotation Xrotation
				End Site
				{
					OFFSET 0.000000 -10.800000 0.000000
				}
			}
		}
	}
	JOINT RightUpLeg
	{
		OFFSET 5.984250 -7.665980 -4.788790
		CHANNELS 3 Zrotation Yrotation Xrotation
		JOINT RightLeg
		{
			OFFSET 16.000000 0.000000 0.000000
			CHANNELS 3 Zrotation Yrotation Xrotation
			JOINT RightFoot
			{
				OFFSET 18.000000 0.000000 0.000000
				CHANNELS 3 Zrotation Yrotation Xrotation
				End Site
				{
					OFFSET 0.000000 -10.800000 0.000000
				}
			}
		}
	}
	JOINT Tail
	{
		OFFSET 6.836960 -0.722574 0.000000
		CHANNELS 3 Zrotation Yrotation Xrotation
		JOINT Tail1
		{
			OFFSET 12.000000 0.000000 0.000000
			CHANNELS 3 Zrotation Yrotation Xrotation
			End Site
			{
				OFFSET 12.000000 0.000000 0.000000
			}
		}
	}
}
MOTION
Frames: 5
Frame Time: 0.033333
66.839615 2.581799 389.140808 -171.774155 62.968475 -172.657608 -164.424164 -2.986989 3.032514 -13.496350 22.953562 -3.477156 -10.917386 13.963089 -9.314048 22.343132 16.602484 98.831902 44.884075 -29.542681 -138.165955 -101.059036 -38.031879 -132.433380 -69.487877 -0.244766 15.281940 -19.913446 -20.391891 4.707273 49.806057 36.188511 -38.314320 83.414650 -29.795914 -30.662849 -101.539612 -11.952258 11.095496 39.991901 -51.282551 -12.708886 -121.090721 -16.361383 -0.622147 82.106956 5.205770 18.068079 38.924278 -7.574095 -4.193310 -135.175568 0.582922 4.160555 94.537048 -4.896939 -4.527099 32.740341 -2.128172 -0.908724 -15.080584 -34.781567 24.020779 8.816687 -4.057271 -12.145100 
67.848816 2.725299 392.422699 -168.557053 61.374348 -170.271271 -163.191360 5.037278 4.598348 -12.463835 16.727654 -1.686830 -9.140059 13.705980 -10.228933 21.499607 17.236782 98.031303 49.162086 -28.713848 -141.757339 -101.203552 -36.064060 -134.165680 -64.783173 -1.441347 14.915229 -23.295229 -19.545189 5.171855 45.984604 35.730824 -41.516171 74.381134 -35.777050 -18.854515 -105.038696 -15.004964 18.694574 22.217978 -27.756804 -1.841125 -114.478783 -16.462246 -1.016911 81.705627 4.524392 17.844065 40.537453 -7.713994 -4.276381 -138.813980 1.787863 5.019109 85.195915 -6.224824 -4.152435 38.202549 -2.049273 -0.636380 -8.094616 -34.271782 17.738445 8.767960 -3.713337 -9.383986 
68.401512 3.057499 395.818787 -164.085693 62.422523 -166.458649 -162.831558 10.498168 5.267821 -10.138981 9.789387 -0.042237 -7.882759 14.989267 -11.624462 20.558453 17.393295 96.714783 54.640102 -27.549788 -146.305084 -96.938492 -35.074764 -138.442795 -58.147236 -3.636522 15.201141 -25.108776 -18.026892 5.115839 43.503880 36.251167 -43.663059 61.529907 -38.873199 -14.615127 -94.010880 -13.630136 6.086380 3.807754 -6.301228 1.537923 -106.378807 -16.953440 -2.149975 79.596107 4.300070 18.281174 43.610359 -7.652463 -4.294043 -139.391632 0.917256 2.956259 72.901962 -6.622005 -8.111919 46.968761 -1.271458 0.465873 -0.415073 -29.246275 10.445417 9.601382 -2.818311 -6.221184 
68.442810 3.268299 399.250183 -158.192764 66.375023 -161.696121 -163.477646 11.638569 4.853215 -7.364338 3.901046 1.090096 -8.168303 17.211693 -13.362114 20.124170 17.003372 95.046738 59.555481 -26.394697 -150.337921 -90.312721 -34.628536 -141.097183 -50.599155 -6.313029 15.580153 -23.724754 -15.332516 4.078206 40.073040 37.884911 -46.739117 51.597431 -48.625034 -7.576552 -75.926231 -6.595462 -9.685753 -3.629196 -6.671346 2.102523 -97.443001 -18.016735 -6.123775 75.260269 6.083792 17.610598 49.943069 -7.498310 -4.359420 -136.881088 -1.188064 2.559040 61.504749 -6.080093 -11.239137 58.225414 -0.951496 1.461902 4.745655 -20.130951 6.088110 10.581668 -1.240699 -3.260205 
68.651909 2.551299 402.761688 -150.030716 71.501938 -156.218704 -165.825775 9.697831 3.150282 -3.385150 0.604833 0.898874 -10.107391 18.524578 -14.928972 20.015652 16.474974 93.536591 61.715504 -26.526165 -152.077164 -84.007179 -36.488293 -141.078522 -40.941170 -9.209605 15.537037 -20.115730 -12.150997 2.720442 36.139057 39.440258 -50.288349 53.999474 -50.572548 -18.526217 -62.643536 5.255167 -13.524320 -2.327927 -2.270782 0.505680 -90.406937 -16.652613 -11.391450 71.900841 7.918379 15.798915 56.998486 -7.316998 -4.514154 -129.367462 -2.687883 3.545606 56.232552 -5.268551 -7.123349 56.960461 -1.079105 1.169727 6.927738 -10.096197 6.646831 11.537746 1.435909 -1.266918 
